  0
SECTION
  2
BLOCKS
  0
ENDSEC
  0
SECTION
  2
ENTITIES
  0
LINE
  8
0
 10
-271.932
 11
-214.699
 20
0
 21
99.13
  0
LINE
  8
0
 10
-214.699
 11
-212.89
 20
99.13
 21
98.147
  0
LINE
  8
0
 10
-212.89
 11
-211.045
 20
98.147
 21
97.265
  0
LINE
  8
0
 10
-211.045
 11
-209.183
 20
97.265
 21
96.493
  0
LINE
  8
0
 10
-209.183
 11
-207.321
 20
96.493
 21
95.837
  0
LINE
  8
0
 10
-207.321
 11
-205.477
 20
95.837
 21
95.306
  0
LINE
  8
0
 10
-205.477
 11
-203.668
 20
95.306
 21
94.903
  0
LINE
  8
0
 10
-203.668
 11
-201.913
 20
94.903
 21
94.632
  0
LINE
  8
0
 10
-201.913
 11
-200.228
 20
94.632
 21
94.496
  0
LINE
  8
0
 10
-200.228
 11
-198.63
 20
94.496
 21
94.497
  0
LINE
  8
0
 10
-198.63
 11
-197.133
 20
94.497
 21
94.634
  0
LINE
  8
0
 10
-197.133
 11
-195.753
 20
94.634
 21
94.906
  0
LINE
  8
0
 10
-195.753
 11
-194.502
 20
94.906
 21
95.31
  0
LINE
  8
0
 10
-194.502
 11
-193.392
 20
95.31
 21
95.844
  0
LINE
  8
0
 10
-193.392
 11
-192.435
 20
95.844
 21
96.5
  0
LINE
  8
0
 10
-192.435
 11
-191.639
 20
96.5
 21
97.274
  0
LINE
  8
0
 10
-191.639
 11
-191.012
 20
97.274
 21
98.157
  0
LINE
  8
0
 10
-191.012
 11
-180.512
 20
98.157
 21
116.343
  0
LINE
  8
0
 10
-180.512
 11
-180.061
 20
116.343
 21
117.327
  0
LINE
  8
0
 10
-180.061
 11
-179.789
 20
117.327
 21
118.404
  0
LINE
  8
0
 10
-179.789
 11
-179.699
 20
118.404
 21
119.56
  0
LINE
  8
0
 10
-179.699
 11
-179.792
 20
119.56
 21
120.789
  0
LINE
  8
0
 10
-179.792
 11
-180.068
 20
120.789
 21
122.074
  0
LINE
  8
0
 10
-180.068
 11
-180.522
 20
122.074
 21
123.405
  0
LINE
  8
0
 10
-180.522
 11
-181.152
 20
123.405
 21
124.77
  0
LINE
  8
0
 10
-181.152
 11
-181.95
 20
124.77
 21
126.155
  0
LINE
  8
0
 10
-181.95
 11
-182.91
 20
126.155
 21
127.546
  0
LINE
  8
0
 10
-182.91
 11
-184.022
 20
127.546
 21
128.93
  0
LINE
  8
0
 10
-184.022
 11
-185.276
 20
128.93
 21
130.295
  0
LINE
  8
0
 10
-185.276
 11
-186.658
 20
130.295
 21
131.627
  0
LINE
  8
0
 10
-186.658
 11
-188.157
 20
131.627
 21
132.911
  0
LINE
  8
0
 10
-188.157
 11
-189.756
 20
132.911
 21
134.138
  0
LINE
  8
0
 10
-189.756
 11
-191.443
 20
134.138
 21
135.295
  0
LINE
  8
0
 10
-191.443
 11
-193.199
 20
135.295
 21
136.37
  0
LINE
  8
0
 10
-193.199
 11
-135.966
 20
136.37
 21
235.5
  0
LINE
  8
0
 10
-135.966
 11
135.966
 20
235.5
 21
235.5
  0
LINE
  8
0
 10
135.966
 11
193.199
 20
235.5
 21
136.37
  0
LINE
  8
0
 10
193.199
 11
191.443
 20
136.37
 21
135.295
  0
LINE
  8
0
 10
191.443
 11
189.756
 20
135.295
 21
134.138
  0
LINE
  8
0
 10
189.756
 11
188.157
 20
134.138
 21
132.911
  0
LINE
  8
0
 10
188.157
 11
186.658
 20
132.911
 21
131.627
  0
LINE
  8
0
 10
186.658
 11
185.275
 20
131.627
 21
130.294
  0
LINE
  8
0
 10
185.275
 11
184.022
 20
130.294
 21
128.931
  0
LINE
  8
0
 10
184.022
 11
182.91
 20
128.931
 21
127.546
  0
LINE
  8
0
 10
182.91
 11
181.95
 20
127.546
 21
126.155
  0
LINE
  8
0
 10
181.95
 11
181.152
 20
126.155
 21
124.77
  0
LINE
  8
0
 10
181.152
 11
180.522
 20
124.77
 21
123.405
  0
LINE
  8
0
 10
180.522
 11
180.068
 20
123.405
 21
122.074
  0
LINE
  8
0
 10
180.068
 11
179.792
 20
122.074
 21
120.789
  0
LINE
  8
0
 10
179.792
 11
179.699
 20
120.789
 21
119.56
  0
LINE
  8
0
 10
179.699
 11
179.789
 20
119.56
 21
118.404
  0
LINE
  8
0
 10
179.789
 11
180.061
 20
118.404
 21
117.327
  0
LINE
  8
0
 10
180.061
 11
180.512
 20
117.327
 21
116.343
  0
LINE
  8
0
 10
180.512
 11
191.012
 20
116.343
 21
98.156
  0
LINE
  8
0
 10
191.012
 11
191.64
 20
98.156
 21
97.273
  0
LINE
  8
0
 10
191.64
 11
192.435
 20
97.273
 21
96.5
  0
LINE
  8
0
 10
192.435
 11
193.392
 20
96.5
 21
95.843
  0
LINE
  8
0
 10
193.392
 11
194.501
 20
95.843
 21
95.31
  0
LINE
  8
0
 10
194.501
 11
195.753
 20
95.31
 21
94.906
  0
LINE
  8
0
 10
195.753
 11
197.133
 20
94.906
 21
94.634
  0
LINE
  8
0
 10
197.133
 11
198.629
 20
94.634
 21
94.496
  0
LINE
  8
0
 10
198.629
 11
200.228
 20
94.496
 21
94.496
  0
LINE
  8
0
 10
200.228
 11
201.913
 20
94.496
 21
94.632
  0
LINE
  8
0
 10
201.913
 11
203.669
 20
94.632
 21
94.902
  0
LINE
  8
0
 10
203.669
 11
205.476
 20
94.902
 21
95.305
  0
LINE
  8
0
 10
205.476
 11
207.32
 20
95.305
 21
95.838
  0
LINE
  8
0
 10
207.32
 11
209.183
 20
95.838
 21
96.493
  0
LINE
  8
0
 10
209.183
 11
211.045
 20
96.493
 21
97.265
  0
LINE
  8
0
 10
211.045
 11
212.89
 20
97.265
 21
98.148
  0
LINE
  8
0
 10
212.89
 11
214.699
 20
98.148
 21
99.13
  0
LINE
  8
0
 10
214.699
 11
271.932
 20
99.13
 21
0
  0
LINE
  8
0
 10
271.932
 11
135.966
 20
0
 21
-235.5
  0
LINE
  8
0
 10
135.966
 11
21.5
 20
-235.5
 21
-235.5
  0
LINE
  8
0
 10
21.5
 11
21.447
 20
-235.5
 21
-233.442
  0
LINE
  8
0
 10
21.447
 11
21.288
 20
-233.442
 21
-231.403
  0
LINE
  8
0
 10
21.288
 11
21.026
 20
-231.403
 21
-229.404
  0
LINE
  8
0
 10
21.026
 11
20.662
 20
-229.404
 21
-227.464
  0
LINE
  8
0
 10
20.662
 11
20.201
 20
-227.464
 21
-225.6
  0
LINE
  8
0
 10
20.201
 11
19.647
 20
-225.6
 21
-223.833
  0
LINE
  8
0
 10
19.647
 11
19.003
 20
-223.833
 21
-222.178
  0
LINE
  8
0
 10
19.003
 11
18.278
 20
-222.178
 21
-220.651
  0
LINE
  8
0
 10
18.278
 11
17.478
 20
-220.651
 21
-219.266
  0
LINE
  8
0
 10
17.478
 11
16.611
 20
-219.266
 21
-218.039
  0
LINE
  8
0
 10
16.611
 11
15.686
 20
-218.039
 21
-216.98
  0
LINE
  8
0
 10
15.686
 11
14.709
 20
-216.98
 21
-216.098
  0
LINE
  8
0
 10
14.709
 11
13.693
 20
-216.098
 21
-215.404
  0
LINE
  8
0
 10
13.693
 11
12.646
 20
-215.404
 21
-214.904
  0
LINE
  8
0
 10
12.646
 11
11.579
 20
-214.904
 21
-214.601
  0
LINE
  8
0
 10
11.579
 11
10.5
 20
-214.601
 21
-214.499
  0
LINE
  8
0
 10
10.5
 11
-10.5
 20
-214.499
 21
-214.5
  0
LINE
  8
0
 10
-10.5
 11
-11.578
 20
-214.5
 21
-214.601
  0
LINE
  8
0
 10
-11.578
 11
-12.646
 20
-214.601
 21
-214.904
  0
LINE
  8
0
 10
-12.646
 11
-13.693
 20
-214.904
 21
-215.404
  0
LINE
  8
0
 10
-13.693
 11
-14.71
 20
-215.404
 21
-216.099
  0
LINE
  8
0
 10
-14.71
 11
-15.685
 20
-216.099
 21
-216.98
  0
LINE
  8
0
 10
-15.685
 11
-16.611
 20
-216.98
 21
-218.039
  0
LINE
  8
0
 10
-16.611
 11
-17.478
 20
-218.039
 21
-219.267
  0
LINE
  8
0
 10
-17.478
 11
-18.278
 20
-219.267
 21
-220.651
  0
LINE
  8
0
 10
-18.278
 11
-19.003
 20
-220.651
 21
-222.178
  0
LINE
  8
0
 10
-19.003
 11
-19.646
 20
-222.178
 21
-223.833
  0
LINE
  8
0
 10
-19.646
 11
-20.201
 20
-223.833
 21
-225.6
  0
LINE
  8
0
 10
-20.201
 11
-20.663
 20
-225.6
 21
-227.464
  0
LINE
  8
0
 10
-20.663
 11
-21.026
 20
-227.464
 21
-229.404
  0
LINE
  8
0
 10
-21.026
 11
-21.289
 20
-229.404
 21
-231.403
  0
LINE
  8
0
 10
-21.289
 11
-21.447
 20
-231.403
 21
-233.442
  0
LINE
  8
0
 10
-21.447
 11
-21.5
 20
-233.442
 21
-235.5
  0
LINE
  8
0
 10
-21.5
 11
-135.966
 20
-235.5
 21
-235.5
  0
LINE
  8
0
 10
-135.966
 11
-271.932
 20
-235.5
 21
0
  0
LINE
  8
0
 10
-216.344
 11
-216.308
 20
84.427
 21
85.505
  0
LINE
  8
0
 10
-216.308
 11
-216.064
 20
85.505
 21
86.555
  0
LINE
  8
0
 10
-216.064
 11
-215.619
 20
86.555
 21
87.537
  0
LINE
  8
0
 10
-215.619
 11
-214.991
 20
87.537
 21
88.413
  0
LINE
  8
0
 10
-214.991
 11
-214.203
 20
88.413
 21
89.151
  0
LINE
  8
0
 10
-214.203
 11
-213.288
 20
89.151
 21
89.72
  0
LINE
  8
0
 10
-213.288
 11
-212.279
 20
89.72
 21
90.1
  0
LINE
  8
0
 10
-212.279
 11
-211.216
 20
90.1
 21
90.276
  0
LINE
  8
0
 10
-211.216
 11
-210.138
 20
90.276
 21
90.24
  0
LINE
  8
0
 10
-210.138
 11
-209.088
 20
90.24
 21
89.995
  0
LINE
  8
0
 10
-209.088
 11
-208.106
 20
89.995
 21
89.55
  0
LINE
  8
0
 10
-208.106
 11
-207.229
 20
89.55
 21
88.922
  0
LINE
  8
0
 10
-207.229
 11
-206.492
 20
88.922
 21
88.135
  0
LINE
  8
0
 10
-206.492
 11
-205.923
 20
88.135
 21
87.22
  0
LINE
  8
0
 10
-205.923
 11
-205.543
 20
87.22
 21
86.211
  0
LINE
  8
0
 10
-205.543
 11
-205.367
 20
86.211
 21
85.147
  0
LINE
  8
0
 10
-205.367
 11
-205.403
 20
85.147
 21
84.07
  0
LINE
  8
0
 10
-205.403
 11
-205.648
 20
84.07
 21
83.019
  0
LINE
  8
0
 10
-205.648
 11
-206.093
 20
83.019
 21
82.037
  0
LINE
  8
0
 10
-206.093
 11
-206.721
 20
82.037
 21
81.161
  0
LINE
  8
0
 10
-206.721
 11
-207.508
 20
81.161
 21
80.424
  0
LINE
  8
0
 10
-207.508
 11
-208.423
 20
80.424
 21
79.854
  0
LINE
  8
0
 10
-208.423
 11
-209.432
 20
79.854
 21
79.475
  0
LINE
  8
0
 10
-209.432
 11
-210.496
 20
79.475
 21
79.299
  0
LINE
  8
0
 10
-210.496
 11
-211.573
 20
79.299
 21
79.334
  0
LINE
  8
0
 10
-211.573
 11
-212.623
 20
79.334
 21
79.579
  0
LINE
  8
0
 10
-212.623
 11
-213.606
 20
79.579
 21
80.024
  0
LINE
  8
0
 10
-213.606
 11
-214.482
 20
80.024
 21
80.652
  0
LINE
  8
0
 10
-214.482
 11
-215.219
 20
80.652
 21
81.439
  0
LINE
  8
0
 10
-215.219
 11
-215.789
 20
81.439
 21
82.355
  0
LINE
  8
0
 10
-215.789
 11
-216.168
 20
82.355
 21
83.364
  0
LINE
  8
0
 10
-216.168
 11
-216.344
 20
83.364
 21
84.427
  0
LINE
  8
0
 10
-198.062
 11
-198.047
 20
77.689
 21
78.13
  0
LINE
  8
0
 10
-198.047
 11
-197.947
 20
78.13
 21
78.56
  0
LINE
  8
0
 10
-197.947
 11
-197.765
 20
78.56
 21
78.961
  0
LINE
  8
0
 10
-197.765
 11
-197.508
 20
78.961
 21
79.32
  0
LINE
  8
0
 10
-197.508
 11
-197.186
 20
79.32
 21
79.621
  0
LINE
  8
0
 10
-197.186
 11
-196.812
 20
79.621
 21
79.854
  0
LINE
  8
0
 10
-196.812
 11
-196.399
 20
79.854
 21
80.01
  0
LINE
  8
0
 10
-196.399
 11
-195.963
 20
80.01
 21
80.082
  0
LINE
  8
0
 10
-195.963
 11
-195.522
 20
80.082
 21
80.067
  0
LINE
  8
0
 10
-195.522
 11
-195.093
 20
80.067
 21
79.967
  0
LINE
  8
0
 10
-195.093
 11
-194.691
 20
79.967
 21
79.785
  0
LINE
  8
0
 10
-194.691
 11
-194.333
 20
79.785
 21
79.528
  0
LINE
  8
0
 10
-194.333
 11
-194.031
 20
79.528
 21
79.206
  0
LINE
  8
0
 10
-194.031
 11
-193.798
 20
79.206
 21
78.832
  0
LINE
  8
0
 10
-193.798
 11
-193.643
 20
78.832
 21
78.419
  0
LINE
  8
0
 10
-193.643
 11
-193.571
 20
78.419
 21
77.983
  0
LINE
  8
0
 10
-193.571
 11
-193.585
 20
77.983
 21
77.542
  0
LINE
  8
0
 10
-193.585
 11
-193.685
 20
77.542
 21
77.113
  0
LINE
  8
0
 10
-193.685
 11
-193.868
 20
77.113
 21
76.711
  0
LINE
  8
0
 10
-193.868
 11
-194.124
 20
76.711
 21
76.353
  0
LINE
  8
0
 10
-194.124
 11
-194.446
 20
76.353
 21
76.051
  0
LINE
  8
0
 10
-194.446
 11
-194.821
 20
76.051
 21
75.818
  0
LINE
  8
0
 10
-194.821
 11
-195.234
 20
75.818
 21
75.663
  0
LINE
  8
0
 10
-195.234
 11
-195.669
 20
75.663
 21
75.591
  0
LINE
  8
0
 10
-195.669
 11
-196.11
 20
75.591
 21
75.605
  0
LINE
  8
0
 10
-196.11
 11
-196.54
 20
75.605
 21
75.705
  0
LINE
  8
0
 10
-196.54
 11
-196.941
 20
75.705
 21
75.888
  0
LINE
  8
0
 10
-196.941
 11
-197.3
 20
75.888
 21
76.144
  0
LINE
  8
0
 10
-197.3
 11
-197.601
 20
76.144
 21
76.466
  0
LINE
  8
0
 10
-197.601
 11
-197.834
 20
76.466
 21
76.841
  0
LINE
  8
0
 10
-197.834
 11
-197.99
 20
76.841
 21
77.254
  0
LINE
  8
0
 10
-197.99
 11
-198.062
 20
77.254
 21
77.689
  0
LINE
  8
0
 10
-198.049
 11
-197.956
 20
-72.533
 21
-71.351
  0
LINE
  8
0
 10
-197.956
 11
-197.719
 20
-71.351
 21
-70.146
  0
LINE
  8
0
 10
-197.719
 11
-197.343
 20
-70.146
 21
-68.928
  0
LINE
  8
0
 10
-197.343
 11
-196.83
 20
-68.928
 21
-67.708
  0
LINE
  8
0
 10
-196.83
 11
-196.185
 20
-67.708
 21
-66.499
  0
LINE
  8
0
 10
-196.185
 11
-195.414
 20
-66.499
 21
-65.311
  0
LINE
  8
0
 10
-195.414
 11
-194.525
 20
-65.311
 21
-64.157
  0
LINE
  8
0
 10
-194.525
 11
-193.526
 20
-64.157
 21
-63.048
  0
LINE
  8
0
 10
-193.526
 11
-192.428
 20
-63.048
 21
-61.993
  0
LINE
  8
0
 10
-192.428
 11
-191.241
 20
-61.993
 21
-61.005
  0
LINE
  8
0
 10
-191.241
 11
-189.974
 20
-61.005
 21
-60.091
  0
LINE
  8
0
 10
-189.974
 11
-188.643
 20
-60.091
 21
-59.261
  0
LINE
  8
0
 10
-188.643
 11
-187.258
 20
-59.261
 21
-58.522
  0
LINE
  8
0
 10
-187.258
 11
-185.834
 20
-58.522
 21
-57.883
  0
LINE
  8
0
 10
-185.834
 11
-184.384
 20
-57.883
 21
-57.348
  0
LINE
  8
0
 10
-184.384
 11
-182.921
 20
-57.348
 21
-56.925
  0
LINE
  8
0
 10
-182.921
 11
-181.461
 20
-56.925
 21
-56.614
  0
LINE
  8
0
 10
-181.461
 11
-180.018
 20
-56.614
 21
-56.422
  0
LINE
  8
0
 10
-180.018
 11
-178.604
 20
-56.422
 21
-56.348
  0
LINE
  8
0
 10
-178.604
 11
-177.234
 20
-56.348
 21
-56.394
  0
LINE
  8
0
 10
-177.234
 11
-175.921
 20
-56.394
 21
-56.56
  0
LINE
  8
0
 10
-175.921
 11
-174.678
 20
-56.56
 21
-56.843
  0
LINE
  8
0
 10
-174.678
 11
-173.515
 20
-56.843
 21
-57.241
  0
LINE
  8
0
 10
-173.515
 11
-172.445
 20
-57.241
 21
-57.75
  0
LINE
  8
0
 10
-172.445
 11
-171.48
 20
-57.75
 21
-58.367
  0
LINE
  8
0
 10
-171.48
 11
-170.626
 20
-58.367
 21
-59.083
  0
LINE
  8
0
 10
-170.626
 11
-169.892
 20
-59.083
 21
-59.892
  0
LINE
  8
0
 10
-169.892
 11
-169.286
 20
-59.892
 21
-60.787
  0
LINE
  8
0
 10
-169.286
 11
-137.286
 20
-60.787
 21
-116.212
  0
LINE
  8
0
 10
-137.286
 11
-136.814
 20
-116.212
 21
-117.185
  0
LINE
  8
0
 10
-136.814
 11
-136.48
 20
-117.185
 21
-118.225
  0
LINE
  8
0
 10
-136.48
 11
-136.286
 20
-118.225
 21
-119.323
  0
LINE
  8
0
 10
-136.286
 11
-136.237
 20
-119.323
 21
-120.467
  0
LINE
  8
0
 10
-136.237
 11
-136.33
 20
-120.467
 21
-121.648
  0
LINE
  8
0
 10
-136.33
 11
-136.566
 20
-121.648
 21
-122.853
  0
LINE
  8
0
 10
-136.566
 11
-136.943
 20
-122.853
 21
-124.072
  0
LINE
  8
0
 10
-136.943
 11
-137.456
 20
-124.072
 21
-125.292
  0
LINE
  8
0
 10
-137.456
 11
-138.101
 20
-125.292
 21
-126.502
  0
LINE
  8
0
 10
-138.101
 11
-138.872
 20
-126.502
 21
-127.689
  0
LINE
  8
0
 10
-138.872
 11
-139.761
 20
-127.689
 21
-128.843
  0
LINE
  8
0
 10
-139.761
 11
-140.759
 20
-128.843
 21
-129.953
  0
LINE
  8
0
 10
-140.759
 11
-141.858
 20
-129.953
 21
-131.007
  0
LINE
  8
0
 10
-141.858
 11
-143.045
 20
-131.007
 21
-131.995
  0
LINE
  8
0
 10
-143.045
 11
-144.311
 20
-131.995
 21
-132.909
  0
LINE
  8
0
 10
-144.311
 11
-145.643
 20
-132.909
 21
-133.739
  0
LINE
  8
0
 10
-145.643
 11
-147.028
 20
-133.739
 21
-134.478
  0
LINE
  8
0
 10
-147.028
 11
-148.452
 20
-134.478
 21
-135.116
  0
LINE
  8
0
 10
-148.452
 11
-149.902
 20
-135.116
 21
-135.651
  0
LINE
  8
0
 10
-149.902
 11
-151.365
 20
-135.651
 21
-136.075
  0
LINE
  8
0
 10
-151.365
 11
-152.824
 20
-136.075
 21
-136.385
  0
LINE
  8
0
 10
-152.824
 11
-154.268
 20
-136.385
 21
-136.578
  0
LINE
  8
0
 10
-154.268
 11
-155.681
 20
-136.578
 21
-136.652
  0
LINE
  8
0
 10
-155.681
 11
-157.052
 20
-136.652
 21
-136.606
  0
LINE
  8
0
 10
-157.052
 11
-158.365
 20
-136.606
 21
-136.44
  0
LINE
  8
0
 10
-158.365
 11
-159.608
 20
-136.44
 21
-136.158
  0
LINE
  8
0
 10
-159.608
 11
-160.771
 20
-136.158
 21
-135.759
  0
LINE
  8
0
 10
-160.771
 11
-161.84
 20
-135.759
 21
-135.249
  0
LINE
  8
0
 10
-161.84
 11
-162.806
 20
-135.249
 21
-134.634
  0
LINE
  8
0
 10
-162.806
 11
-163.66
 20
-134.634
 21
-133.918
  0
LINE
  8
0
 10
-163.66
 11
-164.394
 20
-133.918
 21
-133.108
  0
LINE
  8
0
 10
-164.394
 11
-164.999
 20
-133.108
 21
-132.213
  0
LINE
  8
0
 10
-164.999
 11
-196.999
 20
-132.213
 21
-76.787
  0
LINE
  8
0
 10
-196.999
 11
-197.471
 20
-76.787
 21
-75.815
  0
LINE
  8
0
 10
-197.471
 11
-197.806
 20
-75.815
 21
-74.775
  0
LINE
  8
0
 10
-197.806
 11
-197.999
 20
-74.775
 21
-73.677
  0
LINE
  8
0
 10
-197.999
 11
-198.049
 20
-73.677
 21
-72.533
  0
LINE
  8
0
 10
-184.344
 11
-184.308
 20
139.853
 21
140.93
  0
LINE
  8
0
 10
-184.308
 11
-184.064
 20
140.93
 21
141.981
  0
LINE
  8
0
 10
-184.064
 11
-183.619
 20
141.981
 21
142.963
  0
LINE
  8
0
 10
-183.619
 11
-182.991
 20
142.963
 21
143.839
  0
LINE
  8
0
 10
-182.991
 11
-182.203
 20
143.839
 21
144.576
  0
LINE
  8
0
 10
-182.203
 11
-181.288
 20
144.576
 21
145.146
  0
LINE
  8
0
 10
-181.288
 11
-180.279
 20
145.146
 21
145.525
  0
LINE
  8
0
 10
-180.279
 11
-179.216
 20
145.525
 21
145.701
  0
LINE
  8
0
 10
-179.216
 11
-178.138
 20
145.701
 21
145.666
  0
LINE
  8
0
 10
-178.138
 11
-177.088
 20
145.666
 21
145.421
  0
LINE
  8
0
 10
-177.088
 11
-176.106
 20
145.421
 21
144.976
  0
LINE
  8
0
 10
-176.106
 11
-175.229
 20
144.976
 21
144.348
  0
LINE
  8
0
 10
-175.229
 11
-174.492
 20
144.348
 21
143.561
  0
LINE
  8
0
 10
-174.492
 11
-173.923
 20
143.561
 21
142.645
  0
LINE
  8
0
 10
-173.923
 11
-173.543
 20
142.645
 21
141.636
  0
LINE
  8
0
 10
-173.543
 11
-173.367
 20
141.636
 21
140.573
  0
LINE
  8
0
 10
-173.367
 11
-173.403
 20
140.573
 21
139.495
  0
LINE
  8
0
 10
-173.403
 11
-173.648
 20
139.495
 21
138.445
  0
LINE
  8
0
 10
-173.648
 11
-174.093
 20
138.445
 21
137.463
  0
LINE
  8
0
 10
-174.093
 11
-174.721
 20
137.463
 21
136.587
  0
LINE
  8
0
 10
-174.721
 11
-175.508
 20
136.587
 21
135.849
  0
LINE
  8
0
 10
-175.508
 11
-176.423
 20
135.849
 21
135.28
  0
LINE
  8
0
 10
-176.423
 11
-177.432
 20
135.28
 21
134.9
  0
LINE
  8
0
 10
-177.432
 11
-178.496
 20
134.9
 21
134.724
  0
LINE
  8
0
 10
-178.496
 11
-179.573
 20
134.724
 21
134.76
  0
LINE
  8
0
 10
-179.573
 11
-180.623
 20
134.76
 21
135.005
  0
LINE
  8
0
 10
-180.623
 11
-181.606
 20
135.005
 21
135.45
  0
LINE
  8
0
 10
-181.606
 11
-182.482
 20
135.45
 21
136.078
  0
LINE
  8
0
 10
-182.482
 11
-183.219
 20
136.078
 21
136.865
  0
LINE
  8
0
 10
-183.219
 11
-183.789
 20
136.865
 21
137.78
  0
LINE
  8
0
 10
-183.789
 11
-184.168
 20
137.78
 21
138.789
  0
LINE
  8
0
 10
-184.168
 11
-184.344
 20
138.789
 21
139.853
  0
LINE
  8
0
 10
-167.562
 11
-167.547
 20
130.517
 21
130.958
  0
LINE
  8
0
 10
-167.547
 11
-167.447
 20
130.958
 21
131.387
  0
LINE
  8
0
 10
-167.447
 11
-167.265
 20
131.387
 21
131.789
  0
LINE
  8
0
 10
-167.265
 11
-167.008
 20
131.789
 21
132.147
  0
LINE
  8
0
 10
-167.008
 11
-166.686
 20
132.147
 21
132.449
  0
LINE
  8
0
 10
-166.686
 11
-166.312
 20
132.449
 21
132.682
  0
LINE
  8
0
 10
-166.312
 11
-165.899
 20
132.682
 21
132.837
  0
LINE
  8
0
 10
-165.899
 11
-165.463
 20
132.837
 21
132.909
  0
LINE
  8
0
 10
-165.463
 11
-165.022
 20
132.909
 21
132.895
  0
LINE
  8
0
 10
-165.022
 11
-164.593
 20
132.895
 21
132.795
  0
LINE
  8
0
 10
-164.593
 11
-164.191
 20
132.795
 21
132.612
  0
LINE
  8
0
 10
-164.191
 11
-163.833
 20
132.612
 21
132.356
  0
LINE
  8
0
 10
-163.833
 11
-163.531
 20
132.356
 21
132.034
  0
LINE
  8
0
 10
-163.531
 11
-163.298
 20
132.034
 21
131.659
  0
LINE
  8
0
 10
-163.298
 11
-163.143
 20
131.659
 21
131.246
  0
LINE
  8
0
 10
-163.143
 11
-163.071
 20
131.246
 21
130.811
  0
LINE
  8
0
 10
-163.071
 11
-163.085
 20
130.811
 21
130.37
  0
LINE
  8
0
 10
-163.085
 11
-163.185
 20
130.37
 21
129.94
  0
LINE
  8
0
 10
-163.185
 11
-163.368
 20
129.94
 21
129.539
  0
LINE
  8
0
 10
-163.368
 11
-163.624
 20
129.539
 21
129.18
  0
LINE
  8
0
 10
-163.624
 11
-163.946
 20
129.18
 21
128.879
  0
LINE
  8
0
 10
-163.946
 11
-164.321
 20
128.879
 21
128.646
  0
LINE
  8
0
 10
-164.321
 11
-164.734
 20
128.646
 21
128.49
  0
LINE
  8
0
 10
-164.734
 11
-165.169
 20
128.49
 21
128.418
  0
LINE
  8
0
 10
-165.169
 11
-165.61
 20
128.418
 21
128.433
  0
LINE
  8
0
 10
-165.61
 11
-166.04
 20
128.433
 21
128.533
  0
LINE
  8
0
 10
-166.04
 11
-166.441
 20
128.533
 21
128.715
  0
LINE
  8
0
 10
-166.441
 11
-166.8
 20
128.715
 21
128.972
  0
LINE
  8
0
 10
-166.8
 11
-167.101
 20
128.972
 21
129.294
  0
LINE
  8
0
 10
-167.101
 11
-167.334
 20
129.294
 21
129.668
  0
LINE
  8
0
 10
-167.334
 11
-167.49
 20
129.668
 21
130.081
  0
LINE
  8
0
 10
-167.49
 11
-167.562
 20
130.081
 21
130.517
  0
LINE
  8
0
 10
-166.927
 11
-166.856
 20
23.058
 21
23.493
  0
LINE
  8
0
 10
-166.856
 11
-166.701
 20
23.493
 21
23.906
  0
LINE
  8
0
 10
-166.701
 11
-166.467
 20
23.906
 21
24.281
  0
LINE
  8
0
 10
-166.467
 11
-166.166
 20
24.281
 21
24.602
  0
LINE
  8
0
 10
-166.166
 11
-165.807
 20
24.602
 21
24.859
  0
LINE
  8
0
 10
-165.807
 11
-165.405
 20
24.859
 21
25.042
  0
LINE
  8
0
 10
-165.405
 11
-164.976
 20
25.042
 21
25.141
  0
LINE
  8
0
 10
-164.976
 11
-164.536
 20
25.141
 21
25.156
  0
LINE
  8
0
 10
-164.536
 11
-164.1
 20
25.156
 21
25.084
  0
LINE
  8
0
 10
-164.1
 11
-163.688
 20
25.084
 21
24.929
  0
LINE
  8
0
 10
-163.688
 11
-163.313
 20
24.929
 21
24.696
  0
LINE
  8
0
 10
-163.313
 11
-162.99
 20
24.696
 21
24.394
  0
LINE
  8
0
 10
-162.99
 11
-162.733
 20
24.394
 21
24.036
  0
LINE
  8
0
 10
-162.733
 11
-162.552
 20
24.036
 21
23.634
  0
LINE
  8
0
 10
-162.552
 11
-162.451
 20
23.634
 21
23.204
  0
LINE
  8
0
 10
-162.451
 11
-162.437
 20
23.204
 21
22.763
  0
LINE
  8
0
 10
-162.437
 11
-162.509
 20
22.763
 21
22.328
  0
LINE
  8
0
 10
-162.509
 11
-162.664
 20
22.328
 21
21.915
  0
LINE
  8
0
 10
-162.664
 11
-162.898
 20
21.915
 21
21.541
  0
LINE
  8
0
 10
-162.898
 11
-163.199
 20
21.541
 21
21.219
  0
LINE
  8
0
 10
-163.199
 11
-163.557
 20
21.219
 21
20.962
  0
LINE
  8
0
 10
-163.557
 11
-163.96
 20
20.962
 21
20.78
  0
LINE
  8
0
 10
-163.96
 11
-164.389
 20
20.78
 21
20.68
  0
LINE
  8
0
 10
-164.389
 11
-164.829
 20
20.68
 21
20.665
  0
LINE
  8
0
 10
-164.829
 11
-165.264
 20
20.665
 21
20.738
  0
LINE
  8
0
 10
-165.264
 11
-165.677
 20
20.738
 21
20.893
  0
LINE
  8
0
 10
-165.677
 11
-166.052
 20
20.893
 21
21.125
  0
LINE
  8
0
 10
-166.052
 11
-166.374
 20
21.125
 21
21.427
  0
LINE
  8
0
 10
-166.374
 11
-166.631
 20
21.427
 21
21.785
  0
LINE
  8
0
 10
-166.631
 11
-166.813
 20
21.785
 21
22.187
  0
LINE
  8
0
 10
-166.813
 11
-166.913
 20
22.187
 21
22.616
  0
LINE
  8
0
 10
-166.913
 11
-166.927
 20
22.616
 21
23.058
  0
LINE
  8
0
 10
-104.432
 11
-104.389
 20
131.164
 21
131.603
  0
LINE
  8
0
 10
-104.389
 11
-104.261
 20
131.603
 21
132.024
  0
LINE
  8
0
 10
-104.261
 11
-104.054
 20
132.024
 21
132.414
  0
LINE
  8
0
 10
-104.054
 11
-103.774
 20
132.414
 21
132.755
  0
LINE
  8
0
 10
-103.774
 11
-103.432
 20
132.755
 21
133.034
  0
LINE
  8
0
 10
-103.432
 11
-103.043
 20
133.034
 21
133.243
  0
LINE
  8
0
 10
-103.043
 11
-102.621
 20
133.243
 21
133.371
  0
LINE
  8
0
 10
-102.621
 11
-102.182
 20
133.371
 21
133.414
  0
LINE
  8
0
 10
-102.182
 11
-101.744
 20
133.414
 21
133.371
  0
LINE
  8
0
 10
-101.744
 11
-101.321
 20
133.371
 21
133.243
  0
LINE
  8
0
 10
-101.321
 11
-100.932
 20
133.243
 21
133.034
  0
LINE
  8
0
 10
-100.932
 11
-100.591
 20
133.034
 21
132.754
  0
LINE
  8
0
 10
-100.591
 11
-100.311
 20
132.754
 21
132.414
  0
LINE
  8
0
 10
-100.311
 11
-100.104
 20
132.414
 21
132.025
  0
LINE
  8
0
 10
-100.104
 11
-99.976
 20
132.025
 21
131.603
  0
LINE
  8
0
 10
-99.976
 11
-99.932
 20
131.603
 21
131.164
  0
LINE
  8
0
 10
-99.932
 11
-99.976
 20
131.164
 21
130.725
  0
LINE
  8
0
 10
-99.976
 11
-100.104
 20
130.725
 21
130.303
  0
LINE
  8
0
 10
-100.104
 11
-100.311
 20
130.303
 21
129.914
  0
LINE
  8
0
 10
-100.311
 11
-100.591
 20
129.914
 21
129.573
  0
LINE
  8
0
 10
-100.591
 11
-100.932
 20
129.573
 21
129.293
  0
LINE
  8
0
 10
-100.932
 11
-101.321
 20
129.293
 21
129.085
  0
LINE
  8
0
 10
-101.321
 11
-101.744
 20
129.085
 21
128.957
  0
LINE
  8
0
 10
-101.744
 11
-102.182
 20
128.957
 21
128.913
  0
LINE
  8
0
 10
-102.182
 11
-102.621
 20
128.913
 21
128.957
  0
LINE
  8
0
 10
-102.621
 11
-103.044
 20
128.957
 21
129.085
  0
LINE
  8
0
 10
-103.044
 11
-103.433
 20
129.085
 21
129.293
  0
LINE
  8
0
 10
-103.433
 11
-103.773
 20
129.293
 21
129.573
  0
LINE
  8
0
 10
-103.773
 11
-104.054
 20
129.573
 21
129.914
  0
LINE
  8
0
 10
-104.054
 11
-104.261
 20
129.914
 21
130.303
  0
LINE
  8
0
 10
-104.261
 11
-104.389
 20
130.303
 21
130.724
  0
LINE
  8
0
 10
-104.389
 11
-104.432
 20
130.724
 21
131.164
  0
LINE
  8
0
 10
-64.745
 11
-64.674
 20
-153.927
 21
-153.492
  0
LINE
  8
0
 10
-64.674
 11
-64.518
 20
-153.492
 21
-153.079
  0
LINE
  8
0
 10
-64.518
 11
-64.285
 20
-153.079
 21
-152.705
  0
LINE
  8
0
 10
-64.285
 11
-63.983
 20
-152.705
 21
-152.383
  0
LINE
  8
0
 10
-63.983
 11
-63.625
 20
-152.383
 21
-152.126
  0
LINE
  8
0
 10
-63.625
 11
-63.223
 20
-152.126
 21
-151.944
  0
LINE
  8
0
 10
-63.223
 11
-62.793
 20
-151.944
 21
-151.843
  0
LINE
  8
0
 10
-62.793
 11
-62.353
 20
-151.843
 21
-151.829
  0
LINE
  8
0
 10
-62.353
 11
-61.918
 20
-151.829
 21
-151.901
  0
LINE
  8
0
 10
-61.918
 11
-61.505
 20
-151.901
 21
-152.056
  0
LINE
  8
0
 10
-61.505
 11
-61.131
 20
-152.056
 21
-152.29
  0
LINE
  8
0
 10
-61.131
 11
-60.808
 20
-152.29
 21
-152.591
  0
LINE
  8
0
 10
-60.808
 11
-60.551
 20
-152.591
 21
-152.95
  0
LINE
  8
0
 10
-60.551
 11
-60.37
 20
-152.95
 21
-153.351
  0
LINE
  8
0
 10
-60.37
 11
-60.269
 20
-153.351
 21
-153.781
  0
LINE
  8
0
 10
-60.269
 11
-60.254
 20
-153.781
 21
-154.222
  0
LINE
  8
0
 10
-60.254
 11
-60.327
 20
-154.222
 21
-154.657
  0
LINE
  8
0
 10
-60.327
 11
-60.482
 20
-154.657
 21
-155.069
  0
LINE
  8
0
 10
-60.482
 11
-60.715
 20
-155.069
 21
-155.444
  0
LINE
  8
0
 10
-60.715
 11
-61.017
 20
-155.444
 21
-155.766
  0
LINE
  8
0
 10
-61.017
 11
-61.375
 20
-155.766
 21
-156.023
  0
LINE
  8
0
 10
-61.375
 11
-61.777
 20
-156.023
 21
-156.205
  0
LINE
  8
0
 10
-61.777
 11
-62.206
 20
-156.205
 21
-156.305
  0
LINE
  8
0
 10
-62.206
 11
-62.647
 20
-156.305
 21
-156.319
  0
LINE
  8
0
 10
-62.647
 11
-63.082
 20
-156.319
 21
-156.248
  0
LINE
  8
0
 10
-63.082
 11
-63.495
 20
-156.248
 21
-156.093
  0
LINE
  8
0
 10
-63.495
 11
-63.87
 20
-156.093
 21
-155.859
  0
LINE
  8
0
 10
-63.87
 11
-64.192
 20
-155.859
 21
-155.558
  0
LINE
  8
0
 10
-64.192
 11
-64.448
 20
-155.558
 21
-155.2
  0
LINE
  8
0
 10
-64.448
 11
-64.631
 20
-155.2
 21
-154.798
  0
LINE
  8
0
 10
-64.631
 11
-64.73
 20
-154.798
 21
-154.368
  0
LINE
  8
0
 10
-64.73
 11
-64.745
 20
-154.368
 21
-153.927
  0
LINE
  8
0
 10
-43
 11
-42.946
 20
193
 21
194.568
  0
LINE
  8
0
 10
-42.946
 11
-42.789
 20
194.568
 21
196.122
  0
LINE
  8
0
 10
-42.789
 11
-42.526
 20
196.122
 21
197.644
  0
LINE
  8
0
 10
-42.526
 11
-42.162
 20
197.644
 21
199.123
  0
LINE
  8
0
 10
-42.162
 11
-41.701
 20
199.123
 21
200.542
  0
LINE
  8
0
 10
-41.701
 11
-41.146
 20
200.542
 21
201.889
  0
LINE
  8
0
 10
-41.146
 11
-40.503
 20
201.889
 21
203.151
  0
LINE
  8
0
 10
-40.503
 11
-39.778
 20
203.151
 21
204.314
  0
LINE
  8
0
 10
-39.778
 11
-38.978
 20
204.314
 21
205.368
  0
LINE
  8
0
 10
-38.978
 11
-38.111
 20
205.368
 21
206.303
  0
LINE
  8
0
 10
-38.111
 11
-37.186
 20
206.303
 21
207.11
  0
LINE
  8
0
 10
-37.186
 11
-36.209
 20
207.11
 21
207.782
  0
LINE
  8
0
 10
-36.209
 11
-35.193
 20
207.782
 21
208.311
  0
LINE
  8
0
 10
-35.193
 11
-34.146
 20
208.311
 21
208.693
  0
LINE
  8
0
 10
-34.146
 11
-33.078
 20
208.693
 21
208.923
  0
LINE
  8
0
 10
-33.078
 11
-32
 20
208.923
 21
209
  0
LINE
  8
0
 10
-32
 11
32
 20
209
 21
209
  0
LINE
  8
0
 10
32
 11
33.078
 20
209
 21
208.923
  0
LINE
  8
0
 10
33.078
 11
34.146
 20
208.923
 21
208.693
  0
LINE
  8
0
 10
34.146
 11
35.193
 20
208.693
 21
208.311
  0
LINE
  8
0
 10
35.193
 11
36.209
 20
208.311
 21
207.782
  0
LINE
  8
0
 10
36.209
 11
37.185
 20
207.782
 21
207.111
  0
LINE
  8
0
 10
37.185
 11
38.112
 20
207.111
 21
206.304
  0
LINE
  8
0
 10
38.112
 11
38.978
 20
206.304
 21
205.368
  0
LINE
  8
0
 10
38.978
 11
39.778
 20
205.368
 21
204.314
  0
LINE
  8
0
 10
39.778
 11
40.504
 20
204.314
 21
203.15
  0
LINE
  8
0
 10
40.504
 11
41.146
 20
203.15
 21
201.889
  0
LINE
  8
0
 10
41.146
 11
41.701
 20
201.889
 21
200.542
  0
LINE
  8
0
 10
41.701
 11
42.162
 20
200.542
 21
199.123
  0
LINE
  8
0
 10
42.162
 11
42.526
 20
199.123
 21
197.644
  0
LINE
  8
0
 10
42.526
 11
42.788
 20
197.644
 21
196.121
  0
LINE
  8
0
 10
42.788
 11
42.947
 20
196.121
 21
194.569
  0
LINE
  8
0
 10
42.947
 11
43
 20
194.569
 21
193
  0
LINE
  8
0
 10
43
 11
42.947
 20
193
 21
191.432
  0
LINE
  8
0
 10
42.947
 11
42.789
 20
191.432
 21
189.878
  0
LINE
  8
0
 10
42.789
 11
42.526
 20
189.878
 21
188.356
  0
LINE
  8
0
 10
42.526
 11
42.163
 20
188.356
 21
186.878
  0
LINE
  8
0
 10
42.163
 11
41.701
 20
186.878
 21
185.458
  0
LINE
  8
0
 10
41.701
 11
41.146
 20
185.458
 21
184.111
  0
LINE
  8
0
 10
41.146
 11
40.503
 20
184.111
 21
182.85
  0
LINE
  8
0
 10
40.503
 11
39.778
 20
182.85
 21
181.686
  0
LINE
  8
0
 10
39.778
 11
38.978
 20
181.686
 21
180.632
  0
LINE
  8
0
 10
38.978
 11
38.111
 20
180.632
 21
179.696
  0
LINE
  8
0
 10
38.111
 11
37.185
 20
179.696
 21
178.889
  0
LINE
  8
0
 10
37.185
 11
36.209
 20
178.889
 21
178.218
  0
LINE
  8
0
 10
36.209
 11
35.194
 20
178.218
 21
177.689
  0
LINE
  8
0
 10
35.194
 11
34.146
 20
177.689
 21
177.307
  0
LINE
  8
0
 10
34.146
 11
33.078
 20
177.307
 21
177.077
  0
LINE
  8
0
 10
33.078
 11
32
 20
177.077
 21
176.999
  0
LINE
  8
0
 10
32
 11
-32
 20
176.999
 21
177
  0
LINE
  8
0
 10
-32
 11
-33.078
 20
177
 21
177.077
  0
LINE
  8
0
 10
-33.078
 11
-34.146
 20
177.077
 21
177.308
  0
LINE
  8
0
 10
-34.146
 11
-35.193
 20
177.308
 21
177.69
  0
LINE
  8
0
 10
-35.193
 11
-36.209
 20
177.69
 21
178.217
  0
LINE
  8
0
 10
-36.209
 11
-37.185
 20
178.217
 21
178.889
  0
LINE
  8
0
 10
-37.185
 11
-38.112
 20
178.889
 21
179.697
  0
LINE
  8
0
 10
-38.112
 11
-38.978
 20
179.697
 21
180.632
  0
LINE
  8
0
 10
-38.978
 11
-39.778
 20
180.632
 21
181.686
  0
LINE
  8
0
 10
-39.778
 11
-40.503
 20
181.686
 21
182.85
  0
LINE
  8
0
 10
-40.503
 11
-41.146
 20
182.85
 21
184.111
  0
LINE
  8
0
 10
-41.146
 11
-41.701
 20
184.111
 21
185.457
  0
LINE
  8
0
 10
-41.701
 11
-42.162
 20
185.457
 21
186.877
  0
LINE
  8
0
 10
-42.162
 11
-42.527
 20
186.877
 21
188.355
  0
LINE
  8
0
 10
-42.527
 11
-42.789
 20
188.355
 21
189.878
  0
LINE
  8
0
 10
-42.789
 11
-42.947
 20
189.878
 21
191.431
  0
LINE
  8
0
 10
-42.947
 11
-43
 20
191.431
 21
193
  0
LINE
  8
0
 10
-37.5
 11
-37.395
 20
-225
 21
-223.927
  0
LINE
  8
0
 10
-37.395
 11
-37.082
 20
-223.927
 21
-222.895
  0
LINE
  8
0
 10
-37.082
 11
-36.573
 20
-222.895
 21
-221.944
  0
LINE
  8
0
 10
-36.573
 11
-35.889
 20
-221.944
 21
-221.111
  0
LINE
  8
0
 10
-35.889
 11
-35.056
 20
-221.111
 21
-220.427
  0
LINE
  8
0
 10
-35.056
 11
-34.105
 20
-220.427
 21
-219.919
  0
LINE
  8
0
 10
-34.105
 11
-33.073
 20
-219.919
 21
-219.606
  0
LINE
  8
0
 10
-33.073
 11
-32
 20
-219.606
 21
-219.5
  0
LINE
  8
0
 10
-32
 11
-30.927
 20
-219.5
 21
-219.606
  0
LINE
  8
0
 10
-30.927
 11
-29.896
 20
-219.606
 21
-219.919
  0
LINE
  8
0
 10
-29.896
 11
-28.944
 20
-219.919
 21
-220.427
  0
LINE
  8
0
 10
-28.944
 11
-28.111
 20
-220.427
 21
-221.111
  0
LINE
  8
0
 10
-28.111
 11
-27.427
 20
-221.111
 21
-221.945
  0
LINE
  8
0
 10
-27.427
 11
-26.919
 20
-221.945
 21
-222.895
  0
LINE
  8
0
 10
-26.919
 11
-26.606
 20
-222.895
 21
-223.927
  0
LINE
  8
0
 10
-26.606
 11
-26.5
 20
-223.927
 21
-225
  0
LINE
  8
0
 10
-26.5
 11
-26.606
 20
-225
 21
-226.073
  0
LINE
  8
0
 10
-26.606
 11
-26.919
 20
-226.073
 21
-227.105
  0
LINE
  8
0
 10
-26.919
 11
-27.427
 20
-227.105
 21
-228.055
  0
LINE
  8
0
 10
-27.427
 11
-28.111
 20
-228.055
 21
-228.889
  0
LINE
  8
0
 10
-28.111
 11
-28.944
 20
-228.889
 21
-229.573
  0
LINE
  8
0
 10
-28.944
 11
-29.895
 20
-229.573
 21
-230.082
  0
LINE
  8
0
 10
-29.895
 11
-30.927
 20
-230.082
 21
-230.395
  0
LINE
  8
0
 10
-30.927
 11
-32
 20
-230.395
 21
-230.5
  0
LINE
  8
0
 10
-32
 11
-33.073
 20
-230.5
 21
-230.394
  0
LINE
  8
0
 10
-33.073
 11
-34.105
 20
-230.394
 21
-230.082
  0
LINE
  8
0
 10
-34.105
 11
-35.056
 20
-230.082
 21
-229.573
  0
LINE
  8
0
 10
-35.056
 11
-35.889
 20
-229.573
 21
-228.889
  0
LINE
  8
0
 10
-35.889
 11
-36.573
 20
-228.889
 21
-228.056
  0
LINE
  8
0
 10
-36.573
 11
-37.081
 20
-228.056
 21
-227.105
  0
LINE
  8
0
 10
-37.081
 11
-37.394
 20
-227.105
 21
-226.073
  0
LINE
  8
0
 10
-37.394
 11
-37.5
 20
-226.073
 21
-225
  0
LINE
  8
0
 10
-32.75
 11
-32.707
 20
-208.5
 21
-208.062
  0
LINE
  8
0
 10
-32.707
 11
-32.579
 20
-208.062
 21
-207.639
  0
LINE
  8
0
 10
-32.579
 11
-32.371
 20
-207.639
 21
-207.25
  0
LINE
  8
0
 10
-32.371
 11
-32.091
 20
-207.25
 21
-206.909
  0
LINE
  8
0
 10
-32.091
 11
-31.75
 20
-206.909
 21
-206.629
  0
LINE
  8
0
 10
-31.75
 11
-31.361
 20
-206.629
 21
-206.422
  0
LINE
  8
0
 10
-31.361
 11
-30.939
 20
-206.422
 21
-206.294
  0
LINE
  8
0
 10
-30.939
 11
-30.5
 20
-206.294
 21
-206.25
  0
LINE
  8
0
 10
-30.5
 11
-30.061
 20
-206.25
 21
-206.293
  0
LINE
  8
0
 10
-30.061
 11
-29.639
 20
-206.293
 21
-206.422
  0
LINE
  8
0
 10
-29.639
 11
-29.25
 20
-206.422
 21
-206.629
  0
LINE
  8
0
 10
-29.25
 11
-28.909
 20
-206.629
 21
-206.909
  0
LINE
  8
0
 10
-28.909
 11
-28.629
 20
-206.909
 21
-207.249
  0
LINE
  8
0
 10
-28.629
 11
-28.421
 20
-207.249
 21
-207.639
  0
LINE
  8
0
 10
-28.421
 11
-28.293
 20
-207.639
 21
-208.061
  0
LINE
  8
0
 10
-28.293
 11
-28.25
 20
-208.061
 21
-208.5
  0
LINE
  8
0
 10
-28.25
 11
-28.293
 20
-208.5
 21
-208.939
  0
LINE
  8
0
 10
-28.293
 11
-28.421
 20
-208.939
 21
-209.361
  0
LINE
  8
0
 10
-28.421
 11
-28.629
 20
-209.361
 21
-209.749
  0
LINE
  8
0
 10
-28.629
 11
-28.909
 20
-209.749
 21
-210.092
  0
LINE
  8
0
 10
-28.909
 11
-29.25
 20
-210.092
 21
-210.37
  0
LINE
  8
0
 10
-29.25
 11
-29.639
 20
-210.37
 21
-210.579
  0
LINE
  8
0
 10
-29.639
 11
-30.061
 20
-210.579
 21
-210.707
  0
LINE
  8
0
 10
-30.061
 11
-30.5
 20
-210.707
 21
-210.75
  0
LINE
  8
0
 10
-30.5
 11
-30.939
 20
-210.75
 21
-210.707
  0
LINE
  8
0
 10
-30.939
 11
-31.361
 20
-210.707
 21
-210.579
  0
LINE
  8
0
 10
-31.361
 11
-31.75
 20
-210.579
 21
-210.37
  0
LINE
  8
0
 10
-31.75
 11
-32.091
 20
-210.37
 21
-210.091
  0
LINE
  8
0
 10
-32.091
 11
-32.371
 20
-210.091
 21
-209.75
  0
LINE
  8
0
 10
-32.371
 11
-32.578
 20
-209.75
 21
-209.361
  0
LINE
  8
0
 10
-32.578
 11
-32.706
 20
-209.361
 21
-208.939
  0
LINE
  8
0
 10
-32.706
 11
-32.75
 20
-208.939
 21
-208.5
  0
LINE
  8
0
 10
-2.495
 11
-2.479
 20
-0.163
 21
0.326
  0
LINE
  8
0
 10
-2.479
 11
-2.367
 20
0.326
 21
0.803
  0
LINE
  8
0
 10
-2.367
 11
-2.165
 20
0.803
 21
1.25
  0
LINE
  8
0
 10
-2.165
 11
-1.879
 20
1.25
 21
1.649
  0
LINE
  8
0
 10
-1.879
 11
-1.522
 20
1.649
 21
1.984
  0
LINE
  8
0
 10
-1.522
 11
-1.106
 20
1.984
 21
2.242
  0
LINE
  8
0
 10
-1.106
 11
-0.647
 20
2.242
 21
2.415
  0
LINE
  8
0
 10
-0.647
 11
-0.163
 20
2.415
 21
2.495
  0
LINE
  8
0
 10
-0.163
 11
0.326
 20
2.495
 21
2.479
  0
LINE
  8
0
 10
0.326
 11
0.803
 20
2.479
 21
2.367
  0
LINE
  8
0
 10
0.803
 11
1.25
 20
2.367
 21
2.165
  0
LINE
  8
0
 10
1.25
 11
1.649
 20
2.165
 21
1.879
  0
LINE
  8
0
 10
1.649
 11
1.984
 20
1.879
 21
1.522
  0
LINE
  8
0
 10
1.984
 11
2.242
 20
1.522
 21
1.106
  0
LINE
  8
0
 10
2.242
 11
2.415
 20
1.106
 21
0.647
  0
LINE
  8
0
 10
2.415
 11
2.495
 20
0.647
 21
0.163
  0
LINE
  8
0
 10
2.495
 11
2.479
 20
0.163
 21
-0.326
  0
LINE
  8
0
 10
2.479
 11
2.367
 20
-0.326
 21
-0.803
  0
LINE
  8
0
 10
2.367
 11
2.165
 20
-0.803
 21
-1.25
  0
LINE
  8
0
 10
2.165
 11
1.879
 20
-1.25
 21
-1.649
  0
LINE
  8
0
 10
1.879
 11
1.522
 20
-1.649
 21
-1.984
  0
LINE
  8
0
 10
1.522
 11
1.106
 20
-1.984
 21
-2.242
  0
LINE
  8
0
 10
1.106
 11
0.647
 20
-2.242
 21
-2.415
  0
LINE
  8
0
 10
0.647
 11
0.163
 20
-2.415
 21
-2.495
  0
LINE
  8
0
 10
0.163
 11
-0.326
 20
-2.495
 21
-2.479
  0
LINE
  8
0
 10
-0.326
 11
-0.803
 20
-2.479
 21
-2.367
  0
LINE
  8
0
 10
-0.803
 11
-1.25
 20
-2.367
 21
-2.165
  0
LINE
  8
0
 10
-1.25
 11
-1.649
 20
-2.165
 21
-1.879
  0
LINE
  8
0
 10
-1.649
 11
-1.984
 20
-1.879
 21
-1.522
  0
LINE
  8
0
 10
-1.984
 11
-2.242
 20
-1.522
 21
-1.106
  0
LINE
  8
0
 10
-2.242
 11
-2.415
 20
-1.106
 21
-0.647
  0
LINE
  8
0
 10
-2.415
 11
-2.495
 20
-0.647
 21
-0.163
  0
LINE
  8
0
 10
26.5
 11
26.606
 20
-225
 21
-223.927
  0
LINE
  8
0
 10
26.606
 11
26.919
 20
-223.927
 21
-222.896
  0
LINE
  8
0
 10
26.919
 11
27.427
 20
-222.896
 21
-221.945
  0
LINE
  8
0
 10
27.427
 11
28.111
 20
-221.945
 21
-221.111
  0
LINE
  8
0
 10
28.111
 11
28.944
 20
-221.111
 21
-220.427
  0
LINE
  8
0
 10
28.944
 11
29.895
 20
-220.427
 21
-219.919
  0
LINE
  8
0
 10
29.895
 11
30.926
 20
-219.919
 21
-219.606
  0
LINE
  8
0
 10
30.926
 11
32
 20
-219.606
 21
-219.5
  0
LINE
  8
0
 10
32
 11
33.073
 20
-219.5
 21
-219.606
  0
LINE
  8
0
 10
33.073
 11
34.105
 20
-219.606
 21
-219.919
  0
LINE
  8
0
 10
34.105
 11
35.056
 20
-219.919
 21
-220.427
  0
LINE
  8
0
 10
35.056
 11
35.889
 20
-220.427
 21
-221.111
  0
LINE
  8
0
 10
35.889
 11
36.573
 20
-221.111
 21
-221.944
  0
LINE
  8
0
 10
36.573
 11
37.081
 20
-221.944
 21
-222.895
  0
LINE
  8
0
 10
37.081
 11
37.395
 20
-222.895
 21
-223.927
  0
LINE
  8
0
 10
37.395
 11
37.5
 20
-223.927
 21
-225
  0
LINE
  8
0
 10
37.5
 11
37.394
 20
-225
 21
-226.073
  0
LINE
  8
0
 10
37.394
 11
37.081
 20
-226.073
 21
-227.105
  0
LINE
  8
0
 10
37.081
 11
36.573
 20
-227.105
 21
-228.055
  0
LINE
  8
0
 10
36.573
 11
35.889
 20
-228.055
 21
-228.889
  0
LINE
  8
0
 10
35.889
 11
35.056
 20
-228.889
 21
-229.573
  0
LINE
  8
0
 10
35.056
 11
34.104
 20
-229.573
 21
-230.081
  0
LINE
  8
0
 10
34.104
 11
33.073
 20
-230.081
 21
-230.394
  0
LINE
  8
0
 10
33.073
 11
32
 20
-230.394
 21
-230.5
  0
LINE
  8
0
 10
32
 11
30.927
 20
-230.5
 21
-230.395
  0
LINE
  8
0
 10
30.927
 11
29.895
 20
-230.395
 21
-230.082
  0
LINE
  8
0
 10
29.895
 11
28.944
 20
-230.082
 21
-229.573
  0
LINE
  8
0
 10
28.944
 11
28.111
 20
-229.573
 21
-228.889
  0
LINE
  8
0
 10
28.111
 11
27.426
 20
-228.889
 21
-228.056
  0
LINE
  8
0
 10
27.426
 11
26.919
 20
-228.056
 21
-227.105
  0
LINE
  8
0
 10
26.919
 11
26.606
 20
-227.105
 21
-226.073
  0
LINE
  8
0
 10
26.606
 11
26.5
 20
-226.073
 21
-225
  0
LINE
  8
0
 10
28.25
 11
28.293
 20
-208.5
 21
-208.061
  0
LINE
  8
0
 10
28.293
 11
28.421
 20
-208.061
 21
-207.639
  0
LINE
  8
0
 10
28.421
 11
28.63
 20
-207.639
 21
-207.25
  0
LINE
  8
0
 10
28.63
 11
28.909
 20
-207.25
 21
-206.909
  0
LINE
  8
0
 10
28.909
 11
29.25
 20
-206.909
 21
-206.629
  0
LINE
  8
0
 10
29.25
 11
29.639
 20
-206.629
 21
-206.422
  0
LINE
  8
0
 10
29.639
 11
30.061
 20
-206.422
 21
-206.293
  0
LINE
  8
0
 10
30.061
 11
30.5
 20
-206.293
 21
-206.25
  0
LINE
  8
0
 10
30.5
 11
30.939
 20
-206.25
 21
-206.294
  0
LINE
  8
0
 10
30.939
 11
31.361
 20
-206.294
 21
-206.422
  0
LINE
  8
0
 10
31.361
 11
31.75
 20
-206.422
 21
-206.629
  0
LINE
  8
0
 10
31.75
 11
32.091
 20
-206.629
 21
-206.909
  0
LINE
  8
0
 10
32.091
 11
32.371
 20
-206.909
 21
-207.25
  0
LINE
  8
0
 10
32.371
 11
32.578
 20
-207.25
 21
-207.639
  0
LINE
  8
0
 10
32.578
 11
32.706
 20
-207.639
 21
-208.061
  0
LINE
  8
0
 10
32.706
 11
32.75
 20
-208.061
 21
-208.5
  0
LINE
  8
0
 10
32.75
 11
32.706
 20
-208.5
 21
-208.939
  0
LINE
  8
0
 10
32.706
 11
32.579
 20
-208.939
 21
-209.362
  0
LINE
  8
0
 10
32.579
 11
32.371
 20
-209.362
 21
-209.75
  0
LINE
  8
0
 10
32.371
 11
32.091
 20
-209.75
 21
-210.091
  0
LINE
  8
0
 10
32.091
 11
31.75
 20
-210.091
 21
-210.371
  0
LINE
  8
0
 10
31.75
 11
31.361
 20
-210.371
 21
-210.579
  0
LINE
  8
0
 10
31.361
 11
30.939
 20
-210.579
 21
-210.707
  0
LINE
  8
0
 10
30.939
 11
30.5
 20
-210.707
 21
-210.75
  0
LINE
  8
0
 10
30.5
 11
30.061
 20
-210.75
 21
-210.707
  0
LINE
  8
0
 10
30.061
 11
29.639
 20
-210.707
 21
-210.578
  0
LINE
  8
0
 10
29.639
 11
29.251
 20
-210.578
 21
-210.371
  0
LINE
  8
0
 10
29.251
 11
28.908
 20
-210.371
 21
-210.091
  0
LINE
  8
0
 10
28.908
 11
28.63
 20
-210.091
 21
-209.75
  0
LINE
  8
0
 10
28.63
 11
28.421
 20
-209.75
 21
-209.361
  0
LINE
  8
0
 10
28.421
 11
28.293
 20
-209.361
 21
-208.939
  0
LINE
  8
0
 10
28.293
 11
28.25
 20
-208.939
 21
-208.5
  0
LINE
  8
0
 10
60.255
 11
60.269
 20
-154.221
 21
-153.78
  0
LINE
  8
0
 10
60.269
 11
60.37
 20
-153.78
 21
-153.351
  0
LINE
  8
0
 10
60.37
 11
60.552
 20
-153.351
 21
-152.949
  0
LINE
  8
0
 10
60.552
 11
60.809
 20
-152.949
 21
-152.591
  0
LINE
  8
0
 10
60.809
 11
61.13
 20
-152.591
 21
-152.289
  0
LINE
  8
0
 10
61.13
 11
61.505
 20
-152.289
 21
-152.056
  0
LINE
  8
0
 10
61.505
 11
61.918
 20
-152.056
 21
-151.901
  0
LINE
  8
0
 10
61.918
 11
62.353
 20
-151.901
 21
-151.83
  0
LINE
  8
0
 10
62.353
 11
62.794
 20
-151.83
 21
-151.844
  0
LINE
  8
0
 10
62.794
 11
63.223
 20
-151.844
 21
-151.944
  0
LINE
  8
0
 10
63.223
 11
63.625
 20
-151.944
 21
-152.126
  0
LINE
  8
0
 10
63.625
 11
63.984
 20
-152.126
 21
-152.383
  0
LINE
  8
0
 10
63.984
 11
64.285
 20
-152.383
 21
-152.705
  0
LINE
  8
0
 10
64.285
 11
64.518
 20
-152.705
 21
-153.08
  0
LINE
  8
0
 10
64.518
 11
64.674
 20
-153.08
 21
-153.492
  0
LINE
  8
0
 10
64.674
 11
64.746
 20
-153.492
 21
-153.927
  0
LINE
  8
0
 10
64.746
 11
64.731
 20
-153.927
 21
-154.368
  0
LINE
  8
0
 10
64.731
 11
64.631
 20
-154.368
 21
-154.798
  0
LINE
  8
0
 10
64.631
 11
64.449
 20
-154.798
 21
-155.199
  0
LINE
  8
0
 10
64.449
 11
64.192
 20
-155.199
 21
-155.558
  0
LINE
  8
0
 10
64.192
 11
63.87
 20
-155.558
 21
-155.859
  0
LINE
  8
0
 10
63.87
 11
63.496
 20
-155.859
 21
-156.092
  0
LINE
  8
0
 10
63.496
 11
63.083
 20
-156.092
 21
-156.248
  0
LINE
  8
0
 10
63.083
 11
62.647
 20
-156.248
 21
-156.32
  0
LINE
  8
0
 10
62.647
 11
62.207
 20
-156.32
 21
-156.305
  0
LINE
  8
0
 10
62.207
 11
61.777
 20
-156.305
 21
-156.205
  0
LINE
  8
0
 10
61.777
 11
61.375
 20
-156.205
 21
-156.023
  0
LINE
  8
0
 10
61.375
 11
61.017
 20
-156.023
 21
-155.766
  0
LINE
  8
0
 10
61.017
 11
60.715
 20
-155.766
 21
-155.444
  0
LINE
  8
0
 10
60.715
 11
60.482
 20
-155.444
 21
-155.07
  0
LINE
  8
0
 10
60.482
 11
60.327
 20
-155.07
 21
-154.657
  0
LINE
  8
0
 10
60.327
 11
60.255
 20
-154.657
 21
-154.221
  0
LINE
  8
0
 10
99.932
 11
99.976
 20
131.164
 21
131.603
  0
LINE
  8
0
 10
99.976
 11
100.104
 20
131.603
 21
132.025
  0
LINE
  8
0
 10
100.104
 11
100.311
 20
132.025
 21
132.414
  0
LINE
  8
0
 10
100.311
 11
100.591
 20
132.414
 21
132.755
  0
LINE
  8
0
 10
100.591
 11
100.932
 20
132.755
 21
133.034
  0
LINE
  8
0
 10
100.932
 11
101.322
 20
133.034
 21
133.242
  0
LINE
  8
0
 10
101.322
 11
101.743
 20
133.242
 21
133.371
  0
LINE
  8
0
 10
101.743
 11
102.183
 20
133.371
 21
133.414
  0
LINE
  8
0
 10
102.183
 11
102.621
 20
133.414
 21
133.371
  0
LINE
  8
0
 10
102.621
 11
103.043
 20
133.371
 21
133.242
  0
LINE
  8
0
 10
103.043
 11
103.433
 20
133.242
 21
133.035
  0
LINE
  8
0
 10
103.433
 11
103.774
 20
133.035
 21
132.755
  0
LINE
  8
0
 10
103.774
 11
104.053
 20
132.755
 21
132.413
  0
LINE
  8
0
 10
104.053
 11
104.261
 20
132.413
 21
132.025
  0
LINE
  8
0
 10
104.261
 11
104.389
 20
132.025
 21
131.603
  0
LINE
  8
0
 10
104.389
 11
104.432
 20
131.603
 21
131.164
  0
LINE
  8
0
 10
104.432
 11
104.389
 20
131.164
 21
130.725
  0
LINE
  8
0
 10
104.389
 11
104.261
 20
130.725
 21
130.303
  0
LINE
  8
0
 10
104.261
 11
104.053
 20
130.303
 21
129.913
  0
LINE
  8
0
 10
104.053
 11
103.773
 20
129.913
 21
129.573
  0
LINE
  8
0
 10
103.773
 11
103.433
 20
129.573
 21
129.293
  0
LINE
  8
0
 10
103.433
 11
103.044
 20
129.293
 21
129.085
  0
LINE
  8
0
 10
103.044
 11
102.621
 20
129.085
 21
128.957
  0
LINE
  8
0
 10
102.621
 11
102.183
 20
128.957
 21
128.914
  0
LINE
  8
0
 10
102.183
 11
101.744
 20
128.914
 21
128.957
  0
LINE
  8
0
 10
101.744
 11
101.321
 20
128.957
 21
129.086
  0
LINE
  8
0
 10
101.321
 11
100.932
 20
129.086
 21
129.293
  0
LINE
  8
0
 10
100.932
 11
100.591
 20
129.293
 21
129.573
  0
LINE
  8
0
 10
100.591
 11
100.311
 20
129.573
 21
129.914
  0
LINE
  8
0
 10
100.311
 11
100.104
 20
129.914
 21
130.302
  0
LINE
  8
0
 10
100.104
 11
99.976
 20
130.302
 21
130.725
  0
LINE
  8
0
 10
99.976
 11
99.932
 20
130.725
 21
131.164
  0
LINE
  8
0
 10
136.236
 11
136.287
 20
-120.468
 21
-119.323
  0
LINE
  8
0
 10
136.287
 11
136.479
 20
-119.323
 21
-118.225
  0
LINE
  8
0
 10
136.479
 11
136.814
 20
-118.225
 21
-117.185
  0
LINE
  8
0
 10
136.814
 11
137.286
 20
-117.185
 21
-116.213
  0
LINE
  8
0
 10
137.286
 11
169.286
 20
-116.213
 21
-60.787
  0
LINE
  8
0
 10
169.286
 11
169.892
 20
-60.787
 21
-59.892
  0
LINE
  8
0
 10
169.892
 11
170.625
 20
-59.892
 21
-59.082
  0
LINE
  8
0
 10
170.625
 11
171.48
 20
-59.082
 21
-58.366
  0
LINE
  8
0
 10
171.48
 11
172.446
 20
-58.366
 21
-57.75
  0
LINE
  8
0
 10
172.446
 11
173.515
 20
-57.75
 21
-57.241
  0
LINE
  8
0
 10
173.515
 11
174.677
 20
-57.241
 21
-56.843
  0
LINE
  8
0
 10
174.677
 11
175.921
 20
-56.843
 21
-56.56
  0
LINE
  8
0
 10
175.921
 11
177.234
 20
-56.56
 21
-56.394
  0
LINE
  8
0
 10
177.234
 11
178.604
 20
-56.394
 21
-56.348
  0
LINE
  8
0
 10
178.604
 11
180.018
 20
-56.348
 21
-56.422
  0
LINE
  8
0
 10
180.018
 11
181.462
 20
-56.422
 21
-56.615
  0
LINE
  8
0
 10
181.462
 11
182.922
 20
-56.615
 21
-56.924
  0
LINE
  8
0
 10
182.922
 11
184.383
 20
-56.924
 21
-57.349
  0
LINE
  8
0
 10
184.383
 11
185.835
 20
-57.349
 21
-57.883
  0
LINE
  8
0
 10
185.835
 11
187.258
 20
-57.883
 21
-58.523
  0
LINE
  8
0
 10
187.258
 11
188.643
 20
-58.523
 21
-59.261
  0
LINE
  8
0
 10
188.643
 11
189.974
 20
-59.261
 21
-60.091
  0
LINE
  8
0
 10
189.974
 11
191.24
 20
-60.091
 21
-61.004
  0
LINE
  8
0
 10
191.24
 11
192.429
 20
-61.004
 21
-61.994
  0
LINE
  8
0
 10
192.429
 11
193.527
 20
-61.994
 21
-63.047
  0
LINE
  8
0
 10
193.527
 11
194.525
 20
-63.047
 21
-64.157
  0
LINE
  8
0
 10
194.525
 11
195.414
 20
-64.157
 21
-65.311
  0
LINE
  8
0
 10
195.414
 11
196.185
 20
-65.311
 21
-66.498
  0
LINE
  8
0
 10
196.185
 11
196.83
 20
-66.498
 21
-67.708
  0
LINE
  8
0
 10
196.83
 11
197.343
 20
-67.708
 21
-68.928
  0
LINE
  8
0
 10
197.343
 11
197.72
 20
-68.928
 21
-70.147
  0
LINE
  8
0
 10
197.72
 11
197.956
 20
-70.147
 21
-71.352
  0
LINE
  8
0
 10
197.956
 11
198.049
 20
-71.352
 21
-72.532
  0
LINE
  8
0
 10
198.049
 11
197.999
 20
-72.532
 21
-73.677
  0
LINE
  8
0
 10
197.999
 11
197.806
 20
-73.677
 21
-74.775
  0
LINE
  8
0
 10
197.806
 11
197.472
 20
-74.775
 21
-75.815
  0
LINE
  8
0
 10
197.472
 11
196.999
 20
-75.815
 21
-76.787
  0
LINE
  8
0
 10
196.999
 11
164.999
 20
-76.787
 21
-132.213
  0
LINE
  8
0
 10
164.999
 11
164.394
 20
-132.213
 21
-133.108
  0
LINE
  8
0
 10
164.394
 11
163.66
 20
-133.108
 21
-133.918
  0
LINE
  8
0
 10
163.66
 11
162.806
 20
-133.918
 21
-134.634
  0
LINE
  8
0
 10
162.806
 11
161.839
 20
-134.634
 21
-135.25
  0
LINE
  8
0
 10
161.839
 11
160.771
 20
-135.25
 21
-135.759
  0
LINE
  8
0
 10
160.771
 11
159.609
 20
-135.759
 21
-136.157
  0
LINE
  8
0
 10
159.609
 11
158.365
 20
-136.157
 21
-136.44
  0
LINE
  8
0
 10
158.365
 11
157.052
 20
-136.44
 21
-136.606
  0
LINE
  8
0
 10
157.052
 11
155.682
 20
-136.606
 21
-136.652
  0
LINE
  8
0
 10
155.682
 11
154.268
 20
-136.652
 21
-136.578
  0
LINE
  8
0
 10
154.268
 11
152.824
 20
-136.578
 21
-136.385
  0
LINE
  8
0
 10
152.824
 11
151.364
 20
-136.385
 21
-136.076
  0
LINE
  8
0
 10
151.364
 11
149.903
 20
-136.076
 21
-135.651
  0
LINE
  8
0
 10
149.903
 11
148.451
 20
-135.651
 21
-135.117
  0
LINE
  8
0
 10
148.451
 11
147.027
 20
-135.117
 21
-134.477
  0
LINE
  8
0
 10
147.027
 11
145.643
 20
-134.477
 21
-133.739
  0
LINE
  8
0
 10
145.643
 11
144.311
 20
-133.739
 21
-132.909
  0
LINE
  8
0
 10
144.311
 11
143.046
 20
-132.909
 21
-131.996
  0
LINE
  8
0
 10
143.046
 11
141.857
 20
-131.996
 21
-131.006
  0
LINE
  8
0
 10
141.857
 11
140.759
 20
-131.006
 21
-129.953
  0
LINE
  8
0
 10
140.759
 11
139.761
 20
-129.953
 21
-128.843
  0
LINE
  8
0
 10
139.761
 11
138.872
 20
-128.843
 21
-127.689
  0
LINE
  8
0
 10
138.872
 11
138.101
 20
-127.689
 21
-126.502
  0
LINE
  8
0
 10
138.101
 11
137.456
 20
-126.502
 21
-125.292
  0
LINE
  8
0
 10
137.456
 11
136.943
 20
-125.292
 21
-124.072
  0
LINE
  8
0
 10
136.943
 11
136.566
 20
-124.072
 21
-122.853
  0
LINE
  8
0
 10
136.566
 11
136.33
 20
-122.853
 21
-121.648
  0
LINE
  8
0
 10
136.33
 11
136.236
 20
-121.648
 21
-120.468
  0
LINE
  8
0
 10
162.437
 11
162.451
 20
22.763
 21
23.204
  0
LINE
  8
0
 10
162.451
 11
162.552
 20
23.204
 21
23.634
  0
LINE
  8
0
 10
162.552
 11
162.734
 20
23.634
 21
24.035
  0
LINE
  8
0
 10
162.734
 11
162.991
 20
24.035
 21
24.394
  0
LINE
  8
0
 10
162.991
 11
163.312
 20
24.394
 21
24.695
  0
LINE
  8
0
 10
163.312
 11
163.687
 20
24.695
 21
24.928
  0
LINE
  8
0
 10
163.687
 11
164.1
 20
24.928
 21
25.084
  0
LINE
  8
0
 10
164.1
 11
164.535
 20
25.084
 21
25.156
  0
LINE
  8
0
 10
164.535
 11
164.976
 20
25.156
 21
25.141
  0
LINE
  8
0
 10
164.976
 11
165.406
 20
25.141
 21
25.041
  0
LINE
  8
0
 10
165.406
 11
165.807
 20
25.041
 21
24.859
  0
LINE
  8
0
 10
165.807
 11
166.166
 20
24.859
 21
24.602
  0
LINE
  8
0
 10
166.166
 11
166.468
 20
24.602
 21
24.28
  0
LINE
  8
0
 10
166.468
 11
166.7
 20
24.28
 21
23.906
  0
LINE
  8
0
 10
166.7
 11
166.856
 20
23.906
 21
23.493
  0
LINE
  8
0
 10
166.856
 11
166.928
 20
23.493
 21
23.057
  0
LINE
  8
0
 10
166.928
 11
166.913
 20
23.057
 21
22.616
  0
LINE
  8
0
 10
166.913
 11
166.813
 20
22.616
 21
22.187
  0
LINE
  8
0
 10
166.813
 11
166.631
 20
22.187
 21
21.785
  0
LINE
  8
0
 10
166.631
 11
166.374
 20
21.785
 21
21.427
  0
LINE
  8
0
 10
166.374
 11
166.052
 20
21.427
 21
21.125
  0
LINE
  8
0
 10
166.052
 11
165.678
 20
21.125
 21
20.892
  0
LINE
  8
0
 10
165.678
 11
165.265
 20
20.892
 21
20.737
  0
LINE
  8
0
 10
165.265
 11
164.83
 20
20.737
 21
20.666
  0
LINE
  8
0
 10
164.83
 11
164.389
 20
20.666
 21
20.68
  0
LINE
  8
0
 10
164.389
 11
163.96
 20
20.68
 21
20.78
  0
LINE
  8
0
 10
163.96
 11
163.557
 20
20.78
 21
20.962
  0
LINE
  8
0
 10
163.557
 11
163.199
 20
20.962
 21
21.219
  0
LINE
  8
0
 10
163.199
 11
162.898
 20
21.219
 21
21.541
  0
LINE
  8
0
 10
162.898
 11
162.665
 20
21.541
 21
21.916
  0
LINE
  8
0
 10
162.665
 11
162.509
 20
21.916
 21
22.328
  0
LINE
  8
0
 10
162.509
 11
162.437
 20
22.328
 21
22.763
  0
LINE
  8
0
 10
163.071
 11
163.143
 20
130.811
 21
131.246
  0
LINE
  8
0
 10
163.143
 11
163.298
 20
131.246
 21
131.659
  0
LINE
  8
0
 10
163.298
 11
163.531
 20
131.659
 21
132.034
  0
LINE
  8
0
 10
163.531
 11
163.833
 20
132.034
 21
132.356
  0
LINE
  8
0
 10
163.833
 11
164.191
 20
132.356
 21
132.612
  0
LINE
  8
0
 10
164.191
 11
164.594
 20
132.612
 21
132.794
  0
LINE
  8
0
 10
164.594
 11
165.023
 20
132.794
 21
132.894
  0
LINE
  8
0
 10
165.023
 11
165.463
 20
132.894
 21
132.909
  0
LINE
  8
0
 10
165.463
 11
165.899
 20
132.909
 21
132.837
  0
LINE
  8
0
 10
165.899
 11
166.311
 20
132.837
 21
132.681
  0
LINE
  8
0
 10
166.311
 11
166.686
 20
132.681
 21
132.449
  0
LINE
  8
0
 10
166.686
 11
167.008
 20
132.449
 21
132.148
  0
LINE
  8
0
 10
167.008
 11
167.265
 20
132.148
 21
131.789
  0
LINE
  8
0
 10
167.265
 11
167.447
 20
131.789
 21
131.387
  0
LINE
  8
0
 10
167.447
 11
167.547
 20
131.387
 21
130.958
  0
LINE
  8
0
 10
167.547
 11
167.561
 20
130.958
 21
130.516
  0
LINE
  8
0
 10
167.561
 11
167.49
 20
130.516
 21
130.082
  0
LINE
  8
0
 10
167.49
 11
167.334
 20
130.082
 21
129.668
  0
LINE
  8
0
 10
167.334
 11
167.102
 20
129.668
 21
129.294
  0
LINE
  8
0
 10
167.102
 11
166.8
 20
129.294
 21
128.972
  0
LINE
  8
0
 10
166.8
 11
166.441
 20
128.972
 21
128.715
  0
LINE
  8
0
 10
166.441
 11
166.04
 20
128.715
 21
128.533
  0
LINE
  8
0
 10
166.04
 11
165.61
 20
128.533
 21
128.433
  0
LINE
  8
0
 10
165.61
 11
165.169
 20
128.433
 21
128.418
  0
LINE
  8
0
 10
165.169
 11
164.734
 20
128.418
 21
128.49
  0
LINE
  8
0
 10
164.734
 11
164.321
 20
128.49
 21
128.646
  0
LINE
  8
0
 10
164.321
 11
163.947
 20
128.646
 21
128.879
  0
LINE
  8
0
 10
163.947
 11
163.625
 20
128.879
 21
129.18
  0
LINE
  8
0
 10
163.625
 11
163.368
 20
129.18
 21
129.539
  0
LINE
  8
0
 10
163.368
 11
163.186
 20
129.539
 21
129.941
  0
LINE
  8
0
 10
163.186
 11
163.086
 20
129.941
 21
130.371
  0
LINE
  8
0
 10
163.086
 11
163.071
 20
130.371
 21
130.811
  0
LINE
  8
0
 10
173.367
 11
173.543
 20
140.573
 21
141.636
  0
LINE
  8
0
 10
173.543
 11
173.923
 20
141.636
 21
142.645
  0
LINE
  8
0
 10
173.923
 11
174.492
 20
142.645
 21
143.561
  0
LINE
  8
0
 10
174.492
 11
175.229
 20
143.561
 21
144.348
  0
LINE
  8
0
 10
175.229
 11
176.106
 20
144.348
 21
144.976
  0
LINE
  8
0
 10
176.106
 11
177.088
 20
144.976
 21
145.421
  0
LINE
  8
0
 10
177.088
 11
178.138
 20
145.421
 21
145.666
  0
LINE
  8
0
 10
178.138
 11
179.216
 20
145.666
 21
145.701
  0
LINE
  8
0
 10
179.216
 11
180.279
 20
145.701
 21
145.525
  0
LINE
  8
0
 10
180.279
 11
181.288
 20
145.525
 21
145.146
  0
LINE
  8
0
 10
181.288
 11
182.204
 20
145.146
 21
144.577
  0
LINE
  8
0
 10
182.204
 11
182.991
 20
144.577
 21
143.839
  0
LINE
  8
0
 10
182.991
 11
183.619
 20
143.839
 21
142.963
  0
LINE
  8
0
 10
183.619
 11
184.064
 20
142.963
 21
141.981
  0
LINE
  8
0
 10
184.064
 11
184.309
 20
141.981
 21
140.931
  0
LINE
  8
0
 10
184.309
 11
184.344
 20
140.931
 21
139.853
  0
LINE
  8
0
 10
184.344
 11
184.168
 20
139.853
 21
138.789
  0
LINE
  8
0
 10
184.168
 11
183.788
 20
138.789
 21
137.78
  0
LINE
  8
0
 10
183.788
 11
183.219
 20
137.78
 21
136.865
  0
LINE
  8
0
 10
183.219
 11
182.482
 20
136.865
 21
136.078
  0
LINE
  8
0
 10
182.482
 11
181.606
 20
136.078
 21
135.45
  0
LINE
  8
0
 10
181.606
 11
180.623
 20
135.45
 21
135.005
  0
LINE
  8
0
 10
180.623
 11
179.573
 20
135.005
 21
134.76
  0
LINE
  8
0
 10
179.573
 11
178.496
 20
134.76
 21
134.725
  0
LINE
  8
0
 10
178.496
 11
177.432
 20
134.725
 21
134.9
  0
LINE
  8
0
 10
177.432
 11
176.423
 20
134.9
 21
135.28
  0
LINE
  8
0
 10
176.423
 11
175.507
 20
135.28
 21
135.85
  0
LINE
  8
0
 10
175.507
 11
174.721
 20
135.85
 21
136.587
  0
LINE
  8
0
 10
174.721
 11
174.093
 20
136.587
 21
137.463
  0
LINE
  8
0
 10
174.093
 11
173.648
 20
137.463
 21
138.445
  0
LINE
  8
0
 10
173.648
 11
173.403
 20
138.445
 21
139.495
  0
LINE
  8
0
 10
173.403
 11
173.367
 20
139.495
 21
140.573
  0
LINE
  8
0
 10
193.571
 11
193.643
 20
77.983
 21
78.419
  0
LINE
  8
0
 10
193.643
 11
193.799
 20
78.419
 21
78.831
  0
LINE
  8
0
 10
193.799
 11
194.031
 20
78.831
 21
79.206
  0
LINE
  8
0
 10
194.031
 11
194.333
 20
79.206
 21
79.528
  0
LINE
  8
0
 10
194.333
 11
194.691
 20
79.528
 21
79.785
  0
LINE
  8
0
 10
194.691
 11
195.093
 20
79.785
 21
79.967
  0
LINE
  8
0
 10
195.093
 11
195.522
 20
79.967
 21
80.067
  0
LINE
  8
0
 10
195.522
 11
195.964
 20
80.067
 21
80.081
  0
LINE
  8
0
 10
195.964
 11
196.398
 20
80.081
 21
80.01
  0
LINE
  8
0
 10
196.398
 11
196.812
 20
80.01
 21
79.854
  0
LINE
  8
0
 10
196.812
 11
197.186
 20
79.854
 21
79.621
  0
LINE
  8
0
 10
197.186
 11
197.508
 20
79.621
 21
79.32
  0
LINE
  8
0
 10
197.508
 11
197.765
 20
79.32
 21
78.961
  0
LINE
  8
0
 10
197.765
 11
197.947
 20
78.961
 21
78.56
  0
LINE
  8
0
 10
197.947
 11
198.047
 20
78.56
 21
78.13
  0
LINE
  8
0
 10
198.047
 11
198.061
 20
78.13
 21
77.689
  0
LINE
  8
0
 10
198.061
 11
197.99
 20
77.689
 21
77.254
  0
LINE
  8
0
 10
197.99
 11
197.834
 20
77.254
 21
76.841
  0
LINE
  8
0
 10
197.834
 11
197.602
 20
76.841
 21
76.467
  0
LINE
  8
0
 10
197.602
 11
197.299
 20
76.467
 21
76.145
  0
LINE
  8
0
 10
197.299
 11
196.941
 20
76.145
 21
75.888
  0
LINE
  8
0
 10
196.941
 11
196.539
 20
75.888
 21
75.706
  0
LINE
  8
0
 10
196.539
 11
196.109
 20
75.706
 21
75.605
  0
LINE
  8
0
 10
196.109
 11
195.669
 20
75.605
 21
75.591
  0
LINE
  8
0
 10
195.669
 11
195.234
 20
75.591
 21
75.663
  0
LINE
  8
0
 10
195.234
 11
194.821
 20
75.663
 21
75.818
  0
LINE
  8
0
 10
194.821
 11
194.447
 20
75.818
 21
76.052
  0
LINE
  8
0
 10
194.447
 11
194.125
 20
76.052
 21
76.353
  0
LINE
  8
0
 10
194.125
 11
193.868
 20
76.353
 21
76.711
  0
LINE
  8
0
 10
193.868
 11
193.686
 20
76.711
 21
77.113
  0
LINE
  8
0
 10
193.686
 11
193.586
 20
77.113
 21
77.543
  0
LINE
  8
0
 10
193.586
 11
193.571
 20
77.543
 21
77.983
  0
LINE
  8
0
 10
205.367
 11
205.543
 20
85.147
 21
86.211
  0
LINE
  8
0
 10
205.543
 11
205.923
 20
86.211
 21
87.22
  0
LINE
  8
0
 10
205.923
 11
206.493
 20
87.22
 21
88.136
  0
LINE
  8
0
 10
206.493
 11
207.23
 20
88.136
 21
88.922
  0
LINE
  8
0
 10
207.23
 11
208.106
 20
88.922
 21
89.55
  0
LINE
  8
0
 10
208.106
 11
209.088
 20
89.55
 21
89.995
  0
LINE
  8
0
 10
209.088
 11
210.138
 20
89.995
 21
90.24
  0
LINE
  8
0
 10
210.138
 11
211.215
 20
90.24
 21
90.276
  0
LINE
  8
0
 10
211.215
 11
212.279
 20
90.276
 21
90.1
  0
LINE
  8
0
 10
212.279
 11
213.288
 20
90.1
 21
89.72
  0
LINE
  8
0
 10
213.288
 11
214.204
 20
89.72
 21
89.151
  0
LINE
  8
0
 10
214.204
 11
214.991
 20
89.151
 21
88.414
  0
LINE
  8
0
 10
214.991
 11
215.619
 20
88.414
 21
87.537
  0
LINE
  8
0
 10
215.619
 11
216.064
 20
87.537
 21
86.555
  0
LINE
  8
0
 10
216.064
 11
216.308
 20
86.555
 21
85.505
  0
LINE
  8
0
 10
216.308
 11
216.344
 20
85.505
 21
84.427
  0
LINE
  8
0
 10
216.344
 11
216.168
 20
84.427
 21
83.364
  0
LINE
  8
0
 10
216.168
 11
215.788
 20
83.364
 21
82.354
  0
LINE
  8
0
 10
215.788
 11
215.219
 20
82.354
 21
81.439
  0
LINE
  8
0
 10
215.219
 11
214.482
 20
81.439
 21
80.652
  0
LINE
  8
0
 10
214.482
 11
213.606
 20
80.652
 21
80.024
  0
LINE
  8
0
 10
213.606
 11
212.624
 20
80.024
 21
79.579
  0
LINE
  8
0
 10
212.624
 11
211.573
 20
79.579
 21
79.334
  0
LINE
  8
0
 10
211.573
 11
210.496
 20
79.334
 21
79.299
  0
LINE
  8
0
 10
210.496
 11
209.432
 20
79.299
 21
79.475
  0
LINE
  8
0
 10
209.432
 11
208.423
 20
79.475
 21
79.854
  0
LINE
  8
0
 10
208.423
 11
207.508
 20
79.854
 21
80.424
  0
LINE
  8
0
 10
207.508
 11
206.721
 20
80.424
 21
81.161
  0
LINE
  8
0
 10
206.721
 11
206.093
 20
81.161
 21
82.037
  0
LINE
  8
0
 10
206.093
 11
205.647
 20
82.037
 21
83.02
  0
LINE
  8
0
 10
205.647
 11
205.403
 20
83.02
 21
84.07
  0
LINE
  8
0
 10
205.403
 11
205.367
 20
84.07
 21
85.147
  0
ENDSEC
  0
SECTION
  2
OBJECTS
  0
DICTIONARY
  0
ENDSEC
  0
EOF
